#!OML:ASF F:\VICON\USERDATA\INSTALL\Justin_Nancy\Justin_Nancy.ASF
:FULLY-SPECIFIED
:DEGREES
32
root 0.789944 16.9234 -13.8125 -6.51323 -5.25149 2.3846
lowerback 9.17537 -1.88725 -5.40927
upperback 1.25177 -2.97058 2.01275
thorax -3.45384 -1.4024 5.50136
lowerneck -18.8248 -0.211554 -8.6043
upperneck 21.1069 1.43178 3.39685
head 9.7236 0.358342 2.81317
rclavicle -1.49834e-014 -1.51076e-014
rhumerus -63.1772 13.9945 -98.0512
rradius 125.761
rwrist -10.2831
rhand -3.18008 15.6832
rfingers 7.12502
rthumb 22.5411 -13.0209
lclavicle -1.49834e-014 -1.51076e-014
lhumerus -35.485 0.0649959 89.3656
lradius 127.779
lwrist 38.2714
lhand -17.5615 5.5512
lfingers 7.12502
lthumb 8.6935 35.3522
rfemur -28.3375 0.474391 19.3882
rtibia 21.8729
rfoot -1.10725 -10.5084
rtoes 0.263524
lfemur 1.95478 0.0937208 -25.0979
ltibia 51.2607
lfoot -7.08044 -5.00953
ltoes -26.3486
33
root 0.777894 16.9549 -13.3365 -6.45304 -5.22761 2.59856
lowerback 8.69609 -2.14034 -5.48242
upperback 1.11148 -3.29337 1.99272
thorax -3.28762 -1.56511 5.53332
lowerneck -18.4982 -0.0546935 -8.73122
upperneck 20.8012 1.62821 3.50082
head 9.53946 0.458881 2.88585
rclavicle 1.9366e-014 7.95139e-016
rhumerus -63.7473 13.8877 -97.858
rradius 126.47
rwrist -10.2471
rhand -3.48718 15.4425
rfingers 7.12502
rthumb 22.2463 -13.2971
lclavicle 1.9366e-014 7.95139e-016
lhumerus -35.4961 -0.827583 89.0151
lradius 128.388
lwrist 37.1373
lhand -17.1783 5.0221
lfingers 7.12502
lthumb 9.06334 34.8074
rfemur -25.786 1.5677 18.9635
rtibia 13.3771
rfoot -0.201722 -10.2463
rtoes -4.88753
lfemur 3.36334 -0.187195 -25.1148
ltibia 50.5875
lfoot -5.261 -7.21678
ltoes -26.4739
34
root 0.767097 16.9938 -12.8588 -6.37212 -5.18651 2.99423
lowerback 8.10079 -2.28968 -5.62156
upperback 1.03305 -3.48029 1.84355
thorax -3.01371 -1.66544 5.44093
lowerneck -18.3207 -0.0421758 -8.82099
upperneck 20.5587 1.61406 3.66288
head 9.4194 0.470077 2.94803
rclavicle -3.67752e-014 2.22639e-014
rhumerus -64.16 13.5131 -97.6539
rradius 127.047
rwrist -10.0796
rhand -4.46531 15.4331
rfingers 7.12502
rthumb 21.3071 -13.4156
lclavicle -3.67752e-014 2.22639e-014
lhumerus -35.3756 -2.16223 88.4958
lradius 128.809
lwrist 36.1127
lhand -17.2152 3.52923
lfingers 7.12502
lthumb 9.02765 33.3161
rfemur -20.479 1.73201 18.6197
rtibia 1.90833e-014
rfoot 3.01988 -8.57103
rtoes -8.31385
lfemur 4.22481 -0.724035 -25.3923
ltibia 50.3742
lfoot -2.68229 -9.47714
ltoes -20.6466
35
root 0.755616 17.0039 -12.3859 -6.34321 -5.11432 3.56743
lowerback 7.72388 -2.37475 -5.88031
upperback 0.889126 -3.60523 1.61468
thorax -2.9359 -1.72466 5.34055
lowerneck -18.2958 -0.155 -8.7483
upperneck 20.5694 1.45465 3.57308
head 9.43169 0.390502 2.88405
rclavicle 1.86454e-014 -1.51076e-014
rhumerus -64.5767 12.9285 -97.4403
rradius 127.474
rwrist -9.99289
rhand -5.49987 15.8776
rfingers 7.12502
rthumb 20.3131 -13.0801
lclavicle 1.86454e-014 -1.51076e-014
lhumerus -35.4041 -3.69371 87.9241
lradius 129.061
lwrist 35.2846
lhand -18.3407 2.875
lfingers 7.12502
lthumb 7.9415 32.7058
rfemur -21.7289 1.88623 18.0941
rtibia 9.54166e-015
rfoot 0.508449 -7.34751
rtoes -8.74405
lfemur 5.03371 -1.25109 -25.944
ltibia 50.5677
lfoot -0.428007 -11.2172
ltoes -16.4048
36
root 0.744611 17.0048 -11.9251 -6.26698 -4.87031 4.20058
lowerback 7.50117 -2.4623 -6.25834
upperback 0.626939 -3.75196 1.43984
thorax -3.05327 -1.78228 5.37892
lowerneck -18.2078 -0.267356 -8.78371
upperneck 20.6195 1.32144 3.48183
head 9.44399 0.313132 2.84082
rclavicle 1.81267e-014 -5.56597e-015
rhumerus -65.2225 12.3265 -97.1018
rradius 128.008
rwrist -10.1262
rhand -6.35261 16.2564
rfingers 7.12502
rthumb 19.4934 -12.7864
lclavicle 1.81267e-014 -5.56597e-015
lhumerus -35.5493 -5.13446 87.4606
lradius 129.109
lwrist 34.5015
lhand -19.0756 2.43599
lfingers 7.12502
lthumb 7.23214 32.2924
rfemur -22.5051 1.87857 17.4983
rtibia 2.8625e-014
rfoot -1.43725 -6.0387
rtoes -9.89862
lfemur 5.57421 -2.05148 -26.6318
ltibia 51.302
lfoot 0.750254 -12.3895
ltoes -14.7416
37
root 0.736433 16.981 -11.4736 -6.19477 -4.65063 4.77339
lowerback 7.15718 -2.52322 -6.59526
upperback 0.461626 -3.84581 1.34152
thorax -3.00557 -1.82256 5.45799
lowerneck -18.1222 -0.342507 -9.06985
upperneck 20.5894 1.28007 3.5266
head 9.41966 0.276784 2.89675
rclavicle 1.26104e-014 5.56597e-015
rhumerus -65.8277 11.867 -96.5176
rradius 128.615
rwrist -10.388
rhand -7.20351 16.4448
rfingers 7.12502
rthumb 18.6751 -12.6788
lclavicle 1.26104e-014 5.56597e-015
lhumerus -35.3851 -6.46141 86.9858
lradius 128.753
lwrist 33.839
lhand -18.516 1.99567
lfingers 7.12502
lthumb 7.77233 31.8328
rfemur -22.884 1.90025 16.994
rtibia 1.59028e-014
rfoot -2.52814 -4.89892
rtoes -11.6731
lfemur 5.72365 -2.74559 -27.2381
ltibia 52.5329
lfoot 0.776875 -12.3617
ltoes -15.5265
38
root 0.735463 16.9248 -11.0368 -6.45728 -4.60809 5.42717
lowerback 7.25149 -2.4542 -6.87824
upperback 0.351168 -3.79436 1.12164
thorax -3.17818 -1.78353 5.39276
lowerneck -17.8416 -0.438398 -9.2796
upperneck 20.4754 1.17663 3.52749
head 9.33571 0.21413 2.91303
rclavicle 1.63997e-015 1.74931e-014
rhumerus -66.3058 11.246 -96.0502
rradius 129.059
rwrist -10.5332
rhand -8.04507 16.543
rfingers 7.12502
rthumb 17.8655 -12.6564
lclavicle 1.63997e-015 1.74931e-014
lhumerus -35.3227 -7.95093 86.4398
lradius 128.26
lwrist 33.1378
lhand -16.8472 3.72389
lfingers 7.12502
lthumb 9.38278 33.4951
rfemur -22.6677 2.11766 16.4251
rtibia 3.18055e-014
rfoot -2.69717 -3.93923
rtoes -5.12084
lfemur 5.74353 -3.01056 -27.9085
ltibia 54.244
lfoot -0.397085 -10.7332
ltoes -16.1826
39
root 0.740296 16.8545 -10.614 -6.97818 -4.65655 6.11196
lowerback 8.02932 -2.25573 -7.17349
upperback 0.155979 -3.62974 0.895211
thorax -3.83952 -1.66363 5.36151
lowerneck -17.8551 -0.588363 -9.23312
upperneck 20.6892 1.02808 3.22884
head 9.42852 0.107903 2.78624
rclavicle -6.35614e-014 -1.35174e-014
rhumerus -66.6997 10.5678 -95.4767
rradius 129.338
rwrist -10.5488
rhand -8.61136 16.8597
rfingers 7.12502
rthumb 17.3205 -12.3885
lclavicle -6.35614e-014 -1.35174e-014
lhumerus -35.4366 -9.48146 86.0537
lradius 127.723
lwrist 32.5749
lhand -13.7797 7.63491
lfingers 7.12502
lthumb 12.3415 37.2507
rfemur -21.8887 2.44467 15.8369
rtibia 2.22639e-014
rfoot -1.27699 -2.81724
rtoes -4.29323
lfemur 5.63094 -2.80483 -28.5113
ltibia 56.31
lfoot -1.83164 -8.79689
ltoes -16.52
40
root 0.750424 16.7754 -10.1915 -7.65596 -4.67117 6.87472
lowerback 8.8478 -2.02078 -7.47577
upperback 0.139306 -3.42472 0.625822
thorax -4.34593 -1.53453 5.27551
lowerneck -18.3775 -0.7913 -9.08879
upperneck 21.044 0.842486 2.89579
head 9.66762 -0.0143723 2.63215
rclavicle -6.69159e-014 -6.36111e-015
rhumerus -66.8667 10.0152 -94.8474
rradius 129.602
rwrist -10.3143
rhand -9.25121 17.5066
rfingers 7.12502
rthumb 16.7046 -11.7947
lclavicle -6.69159e-014 -6.36111e-015
lhumerus -35.1578 -10.9224 85.6668
lradius 126.917
lwrist 32.0214
lhand -13.8477 4.24073
lfingers 7.12502
lthumb 12.276 33.8604
rfemur -20.6477 2.77831 15.2052
rtibia 3.18055e-014
rfoot 1.74221 -1.57268
rtoes -6.08032
lfemur 5.56696 -2.32907 -29.0877
ltibia 58.5563
lfoot -2.7247 -7.04399
ltoes -17.507
41
root 0.757185 16.689 -9.76382 -8.48697 -4.66164 7.4879
lowerback 9.48954 -1.83678 -7.69191
upperback 0.371741 -3.25735 0.419302
thorax -4.48568 -1.44904 5.18809
lowerneck -18.9676 -0.996396 -9.07399
upperneck 21.2589 0.673053 2.66988
head 9.86778 -0.123245 2.53487
rclavicle 2.43014e-014 1.11319e-014
rhumerus -66.704 9.7175 -94.2885
rradius 129.736
rwrist -9.99663
rhand -10.0624 18.1315
rfingers 7.12502
rthumb 15.9236 -11.2338
lclavicle 2.43014e-014 1.11319e-014
lhumerus -34.7771 -12.1271 85.3839
lradius 126.017
lwrist 30.9077
lhand -14.1623 2.99875
lfingers 7.12502
lthumb 11.9726 32.6363
rfemur -22.3213 3.14159 14.7663
rtibia 6.45247
rfoot 1.29215 -0.60718
rtoes -6.18772
lfemur 5.63135 -1.81981 -29.3736
ltibia 60.8434
lfoot -2.8419 -5.36082
ltoes -15.4432
42
root 0.75315 16.5997 -9.3346 -9.37573 -4.60634 8.05734
lowerback 10.1643 -1.64163 -7.99652
upperback 0.604254 -3.09053 0.239874
thorax -4.63674 -1.36141 5.17777
lowerneck -18.8391 -1.15425 -9.32579
upperneck 20.7745 0.488842 2.7626
head 9.68413 -0.203863 2.57509
rclavicle 2.29099e-014 3.18055e-014
rhumerus -66.259 9.47799 -93.7567
rradius 129.726
rwrist -10.0043
rhand -10.3666 17.6589
rfingers 7.12502
rthumb 15.6306 -11.7296
lclavicle 2.29099e-014 3.18055e-014
lhumerus -34.885 -13.2173 85.3822
lradius 125.256
lwrist 29.5939
lhand -15.3122 3.63791
lfingers 7.12502
lthumb 10.8636 33.3369
rfemur -23.8838 3.43726 14.2922
rtibia 13.2105
rfoot -0.157405 0.255176
rtoes -5.24062
lfemur 5.59554 -1.13669 -29.4283
ltibia 63.1309
lfoot -2.01356 -3.78211
ltoes -10.9134
